<?xml version="1.0" standalone="no"?>
<!DOCTYPE svg PUBLIC "-//W3C//DTD SVG 20010904//EN"
 "http://www.w3.org/TR/2001/REC-SVG-20010904/DTD/svg10.dtd">
<svg version="1.0" xmlns="http://www.w3.org/2000/svg"
 width="634.000000pt" height="634.000000pt" viewBox="0 0 634.000000 634.000000"
 preserveAspectRatio="xMidYMid meet">
<metadata>
Created by potrace 1.14, written by Peter Selinger 2001-2017
</metadata>
<g transform="translate(0.000000,634.000000) scale(0.100000,-0.100000)"
fill="#000000" stroke="none">
<path d="M4200 5643 c-66 -34 -167 -133 -197 -194 -47 -95 -83 -173 -83 -181
0 -7 -65 -160 -438 -1028 -94 -217 -174 -396 -179 -397 -4 -2 -21 21 -36 51
-16 29 -60 109 -98 177 -39 68 -87 153 -106 189 -127 230 -456 816 -462 822
-4 4 -89 -42 -190 -102 -101 -61 -184 -110 -186 -110 -1 0 -52 -30 -111 -67
-60 -36 -124 -75 -143 -85 -19 -11 -161 -95 -315 -187 -645 -386 -1027 -612
-1041 -617 -8 -4 -15 -10 -15 -16 0 -8 74 -145 258 -478 13 -25 40 -74 60
-110 19 -36 96 -175 170 -310 75 -135 150 -272 169 -305 47 -87 76 -181 76
-248 0 -32 -4 -62 -9 -67 -5 -5 -70 93 -156 238 -81 136 -221 371 -311 522
-122 206 -477 758 -514 800 -9 10 -71 -24 -203 -111 -133 -88 -139 -93 -127
-113 8 -12 74 -122 147 -246 73 -124 203 -343 289 -488 86 -144 164 -277 175
-295 26 -46 398 -672 469 -792 33 -55 68 -113 77 -130 10 -16 44 -76 78 -131
85 -144 86 -148 78 -343 -4 -91 -9 -186 -11 -211 -2 -25 -5 -101 -5 -170 -2
-139 14 -204 53 -216 31 -10 3365 -6 3407 4 77 18 107 141 135 557 2 44 7 118
10 165 13 199 23 298 31 311 2 3 41 -5 86 -18 343 -99 721 82 925 443 137 243
152 516 42 767 -32 73 -42 91 -88 162 -119 183 -311 310 -536 356 -88 17 -282
14 -357 -6 l-28 -7 21 48 c12 27 33 76 48 109 15 33 47 106 71 162 23 56 48
104 54 106 20 8 132 -12 217 -39 269 -84 506 -269 599 -466 26 -54 29 -71 24
-116 -9 -86 33 -115 104 -72 47 29 44 62 -10 92 -34 19 -49 38 -82 103 -99
194 -243 342 -421 433 -112 57 -161 74 -265 92 -36 6 -81 15 -101 21 l-37 9
90 198 c118 262 114 254 201 437 88 185 105 238 101 317 -4 83 -33 140 -116
223 -127 127 -360 263 -728 426 -317 140 -340 148 -445 155 -51 4 -68 1 -115
-23z m240 -174 c66 -19 119 -45 290 -137 52 -28 166 -83 253 -122 353 -157
457 -242 443 -359 -8 -70 -35 -139 -129 -331 -46 -96 -116 -245 -155 -330 -38
-85 -89 -195 -112 -245 -23 -49 -51 -110 -62 -135 -66 -147 -184 -405 -212
-465 l-33 -70 24 -13 c21 -11 27 -10 56 12 51 39 113 63 223 85 106 22 237 29
314 16 107 -16 270 -87 326 -140 6 -5 29 -26 50 -46 136 -126 232 -318 264
-527 57 -374 -178 -729 -569 -859 -106 -35 -207 -38 -341 -9 l-105 22 -1 48
c0 26 3 68 7 94 4 26 10 81 14 122 3 41 8 82 10 90 2 8 7 49 10 90 4 41 9 83
11 93 7 40 17 178 18 275 2 110 -11 167 -41 190 -21 15 -101 39 -162 47 -59 9
-3157 9 -3201 0 -83 -15 -139 -78 -166 -185 -14 -56 -17 -151 -19 -715 -6
-1292 -5 -1214 -20 -1209 -12 5 -15 151 -16 972 -1 1214 -1 1224 12 1295 14
80 26 103 68 129 38 23 38 23 1451 28 120 0 155 -21 257 -156 34 -45 75 -92
92 -106 l29 -25 751 2 c413 2 755 6 760 9 5 4 8 53 7 114 -3 132 -20 175 -81
206 -38 20 -56 20 -648 19 -335 -1 -625 -4 -644 -8 -70 -13 -106 -58 -133
-163 l-11 -43 -58 78 c-68 92 -102 124 -156 152 -47 24 -152 46 -212 45 -24 0
-43 2 -44 5 -1 3 -2 71 -4 151 -4 221 -13 306 -45 400 -39 119 -91 202 -179
291 -131 131 -261 181 -465 175 -126 -3 -146 -6 -224 -32 -175 -60 -334 -181
-406 -311 -69 -122 -86 -225 -90 -541 -1 -142 -4 -165 -19 -173 -32 -18 -70
-96 -94 -193 -9 -36 -10 -229 -2 -266 4 -19 6 -36 5 -38 -4 -4 -112 196 -276
513 -46 88 -128 238 -182 334 -54 96 -95 178 -91 182 4 4 187 115 405 246 219
131 614 368 879 527 264 158 484 284 488 280 7 -8 345 -610 426 -759 15 -27
31 -54 35 -60 4 -5 23 -39 42 -75 20 -36 83 -148 140 -250 57 -102 137 -245
178 -317 l74 -133 78 4 c43 2 80 5 83 7 2 3 -42 85 -97 184 l-101 179 22 66
c19 52 305 715 389 900 56 122 209 477 244 565 79 198 114 257 178 304 45 33
90 33 200 0z m-2165 -1293 c196 -48 358 -203 395 -379 4 -23 11 -53 14 -67 15
-63 25 -404 13 -417 -4 -3 -876 -6 -1093 -3 -17 0 -31 5 -31 13 0 6 -4 39 -8
72 -34 265 41 513 198 649 65 58 174 113 257 130 66 14 201 15 255 2z m-1907
-369 c43 -62 112 -178 112 -187 0 -8 -217 -156 -242 -165 -8 -3 -38 40 -85
123 -81 144 -81 145 -2 196 111 71 154 93 171 84 10 -4 30 -27 46 -51z m240
-441 c17 -19 56 -79 88 -133 31 -54 184 -307 340 -563 l282 -465 1 -80 c1 -43
0 -77 -2 -75 -5 5 -319 517 -347 565 -10 17 -117 192 -238 390 -220 358 -221
360 -201 378 30 24 43 22 77 -17z m-114 -118 c20 -23 60 -82 90 -132 29 -50
156 -264 281 -476 125 -212 277 -460 338 -551 l111 -166 1 -101 c1 -56 0 -101
-1 -99 -2 2 -419 709 -444 752 -9 17 -87 149 -174 294 -86 145 -156 264 -156
266 0 1 -29 51 -65 110 -62 102 -65 109 -49 126 23 26 28 25 68 -23z"/>
<path d="M4262 5227 c-39 -52 -102 -201 -102 -241 0 -12 85 -62 345 -201 33
-18 128 -67 210 -110 83 -42 179 -94 215 -115 36 -20 86 -45 112 -55 41 -15
50 -16 65 -4 26 22 78 109 101 170 19 51 19 58 5 88 -13 25 -34 40 -102 73
-241 114 -565 277 -631 318 -112 69 -200 100 -218 77z"/>
<path d="M4076 4805 c-15 -19 -33 -52 -41 -74 -13 -37 -12 -40 13 -64 32 -29
75 -52 117 -61 33 -7 51 7 89 67 31 50 29 83 -10 116 -31 28 -88 51 -125 51
-9 0 -29 -16 -43 -35z"/>
<path d="M4308 4636 l-37 -73 27 -26 c27 -26 74 -49 124 -61 31 -7 65 19 92
71 27 54 21 87 -21 114 -53 34 -90 49 -121 49 -23 0 -32 -10 -64 -74z"/>
<path d="M4583 4558 c-32 -34 -53 -79 -53 -114 0 -39 43 -75 117 -97 56 -17
57 -17 100 53 31 51 37 94 15 112 -33 29 -87 56 -122 63 -29 5 -39 2 -57 -17z"/>
<path d="M3948 4533 c-42 -49 -61 -114 -41 -143 21 -29 84 -67 123 -73 26 -5
37 0 57 21 28 30 62 97 63 124 0 19 -58 58 -115 75 -54 17 -69 16 -87 -4z"/>
<path d="M4833 4428 c-26 -29 -51 -77 -57 -112 -4 -21 2 -31 28 -51 40 -31 98
-55 130 -55 29 0 67 46 86 103 11 35 10 41 -10 62 -20 21 -82 53 -136 69 -14
4 -27 -1 -41 -16z"/>
<path d="M4213 4398 c-12 -13 -34 -49 -49 -81 l-26 -59 26 -27 c23 -24 75 -48
125 -57 37 -7 109 112 99 164 -4 20 -82 69 -123 78 -23 4 -35 0 -52 -18z"/>
<path d="M4477 4278 c-20 -11 -65 -85 -77 -129 -9 -29 -6 -35 23 -60 44 -40
126 -70 149 -56 22 14 64 92 72 136 5 27 2 37 -16 53 -49 43 -125 71 -151 56z"/>
<path d="M3825 4236 c-31 -31 -65 -99 -65 -130 0 -26 35 -59 97 -90 43 -22 56
-20 90 8 37 31 73 128 57 154 -10 16 -128 82 -147 82 -4 0 -19 -11 -32 -24z"/>
<path d="M4727 4139 c-20 -12 -50 -68 -66 -124 -9 -35 -8 -42 10 -62 30 -31
106 -65 138 -61 31 4 85 80 96 135 5 30 2 40 -19 62 -14 15 -47 35 -73 44 -55
20 -62 20 -86 6z"/>
<path d="M4053 4092 c-11 -16 -29 -51 -39 -80 l-18 -51 29 -32 c34 -35 66 -54
113 -64 27 -5 36 -3 52 17 71 83 81 145 32 190 -30 26 -87 48 -128 48 -11 0
-30 -13 -41 -28z"/>
<path d="M4324 3961 c-32 -39 -64 -107 -64 -135 0 -44 120 -113 166 -96 25 10
58 59 78 118 14 38 13 43 -6 67 -23 30 -80 61 -123 68 -23 3 -35 -2 -51 -22z"/>
<path d="M3672 3926 c-72 -77 -82 -129 -32 -176 63 -59 143 -78 181 -44 68 60
52 186 -29 228 -56 29 -88 27 -120 -8z"/>
<path d="M4573 3813 c-27 -37 -54 -90 -63 -124 -9 -30 9 -48 87 -88 59 -30 96
-28 119 7 53 78 70 143 45 166 -26 23 -93 54 -132 61 -32 6 -39 3 -56 -22z"/>
<path d="M3933 3804 c-27 -27 -73 -124 -73 -155 0 -45 121 -118 173 -105 23 5
28 13 61 88 21 47 20 107 -2 134 -20 26 -43 38 -95 52 -35 10 -41 9 -64 -14z"/>
<path d="M4170 3639 c-40 -56 -57 -111 -42 -143 11 -24 120 -86 152 -86 38 0
100 92 100 149 0 46 -67 98 -147 115 -29 7 -34 4 -63 -35z"/>
<path d="M4430 3518 c-33 -33 -47 -59 -60 -117 -8 -30 -5 -37 20 -61 62 -57
153 -84 195 -56 60 39 74 124 30 182 -25 33 -111 84 -142 84 -6 0 -26 -14 -43
-32z"/>
<path d="M5168 3319 c-14 -9 -19 -141 -7 -161 4 -7 24 -13 43 -14 l36 -2 1 56
c0 31 2 70 3 85 1 16 -3 31 -9 35 -14 9 -53 10 -67 1z"/>
<path d="M5454 2917 c-88 -90 -177 -187 -197 -217 -32 -47 -40 -53 -74 -56
-54 -3 -87 -44 -80 -97 7 -51 36 -80 77 -79 47 1 76 32 86 89 8 43 25 68 120
170 198 214 251 290 235 335 -5 14 -40 -17 -167 -145z"/>
<path d="M5745 2997 c-47 -35 -64 -59 -54 -79 11 -21 37 -14 83 24 38 31 47
62 20 72 -19 7 -14 9 -49 -17z"/>
<path d="M5770 2620 c-6 -4 -9 -20 -7 -36 4 -29 4 -29 83 -32 l80 -3 -1 30 c0
17 -3 32 -6 35 -8 8 -137 14 -149 6z"/>
<path d="M5690 2230 c0 -24 53 -86 80 -93 14 -4 24 2 32 16 10 19 6 26 -32 59
-47 42 -80 50 -80 18z"/>
<path d="M5161 1945 l-1 -95 42 0 43 0 -1 88 c-1 48 -2 90 -3 95 -1 4 -19 7
-40 7 l-39 0 -1 -95z"/>
<path d="M2369 3904 c-62 -45 -192 -170 -256 -246 l-32 -37 -58 63 c-101 109
-145 130 -199 97 -34 -21 -69 -83 -66 -119 2 -30 23 -56 130 -165 101 -105
163 -157 184 -157 33 0 224 154 329 265 175 185 211 298 107 334 -52 18 -73
13 -139 -35z"/>
<path d="M6248 2885 c-3 -3 -1 -25 3 -48 52 -259 18 -518 -102 -776 -135 -289
-356 -485 -634 -563 -69 -19 -105 -22 -261 -23 -154 0 -181 -2 -179 -15 3 -24
100 -51 184 -52 216 -1 440 85 641 245 207 166 334 393 406 727 41 187 18 510
-36 510 -9 0 -19 -2 -22 -5z"/>
</g>
</svg>
